<mxfile host="Electron" modified="2023-05-27T15:28:45.993Z" agent="Mozilla/5.0 (Macintosh; Intel Mac OS X 10_15_7) AppleWebKit/537.36 (KHTML, like Gecko) draw.io/21.2.1 Chrome/112.0.5615.87 Electron/24.1.2 Safari/537.36" etag="CZwBt6KLGP-t1MZvdg7E" version="21.2.1" type="device">
  <diagram name="Page-1" id="H1nZVYqxkzLZFgEqRADx">
    <mxGraphModel dx="2640" dy="5350" grid="1" gridSize="10" guides="1" tooltips="1" connect="1" arrows="1" fold="1" page="1" pageScale="1" pageWidth="850" pageHeight="1100" math="0" shadow="0">
      <root>
        <mxCell id="0" />
        <mxCell id="1" parent="0" />
        <mxCell id="AsBp8XiL8Dx4Y6rQVwFH-2797" value="R, W: 122, H: 107, ORDER: 13, GC: {45, 30, 47, 15, 7, 8, 6, 1, 9, 2, 4, 62, 60} " style="text;html=1;strokeColor=none;fillColor=none;align=center;verticalAlign=middle;whiteSpace=wrap;rounded=0;" parent="1" vertex="1">
          <mxGeometry x="50" width="1220" height="30" as="geometry" />
        </mxCell>
        <mxCell id="AsBp8XiL8Dx4Y6rQVwFH-4915" value="R, W: 122, H: 98, ORDER: 16, GC: {45, 24, 27, 21, 3, 26, 1, 25, 31, 7, 18, 53, 13, 40, 11, 29} " style="text;html=1;strokeColor=none;fillColor=none;align=center;verticalAlign=middle;whiteSpace=wrap;rounded=0;flipV=1;" parent="1" vertex="1">
          <mxGeometry x="75" y="1280" width="1220" height="30" as="geometry" />
        </mxCell>
        <mxCell id="AsBp8XiL8Dx4Y6rQVwFH-16346" value="R, W: 122, H: 84, ORDER: 20, GC: {36, 19, 16, 27, 5, 11, 17, 2, 7, 24, 3, 21, 1, 22, 8, 18, 39, 48, 13, 35} " style="text;html=1;strokeColor=none;fillColor=none;align=center;verticalAlign=middle;whiteSpace=wrap;rounded=0;flipV=1;" parent="1" vertex="1">
          <mxGeometry x="65" y="2410" width="1220" height="30" as="geometry" />
        </mxCell>
        <mxCell id="9cPvnPn_NWPfVseriCJ5-1" value="" style="group;flipV=1;" vertex="1" connectable="0" parent="1">
          <mxGeometry x="50" y="50" width="1220" height="1070" as="geometry" />
        </mxCell>
        <mxCell id="761dnnyQ54j-Cl0NHfQN-2798" value="45" style="rounded=0;whiteSpace=wrap;html=1;" parent="9cPvnPn_NWPfVseriCJ5-1" vertex="1">
          <mxGeometry y="620" width="450" height="450" as="geometry" />
        </mxCell>
        <mxCell id="761dnnyQ54j-Cl0NHfQN-2799" value="30" style="rounded=0;whiteSpace=wrap;html=1;" parent="9cPvnPn_NWPfVseriCJ5-1" vertex="1">
          <mxGeometry x="450" y="770" width="300" height="300" as="geometry" />
        </mxCell>
        <mxCell id="761dnnyQ54j-Cl0NHfQN-2800" value="47" style="rounded=0;whiteSpace=wrap;html=1;" parent="9cPvnPn_NWPfVseriCJ5-1" vertex="1">
          <mxGeometry x="750" y="600" width="470" height="470" as="geometry" />
        </mxCell>
        <mxCell id="761dnnyQ54j-Cl0NHfQN-2801" value="15" style="rounded=0;whiteSpace=wrap;html=1;" parent="9cPvnPn_NWPfVseriCJ5-1" vertex="1">
          <mxGeometry x="450" y="620" width="150" height="150" as="geometry" />
        </mxCell>
        <mxCell id="761dnnyQ54j-Cl0NHfQN-2802" value="7" style="rounded=0;whiteSpace=wrap;html=1;" parent="9cPvnPn_NWPfVseriCJ5-1" vertex="1">
          <mxGeometry x="600" y="700" width="70" height="70" as="geometry" />
        </mxCell>
        <mxCell id="761dnnyQ54j-Cl0NHfQN-2803" value="8" style="rounded=0;whiteSpace=wrap;html=1;" parent="9cPvnPn_NWPfVseriCJ5-1" vertex="1">
          <mxGeometry x="670" y="690" width="80" height="80" as="geometry" />
        </mxCell>
        <mxCell id="761dnnyQ54j-Cl0NHfQN-2804" value="6" style="rounded=0;whiteSpace=wrap;html=1;" parent="9cPvnPn_NWPfVseriCJ5-1" vertex="1">
          <mxGeometry x="600" y="640" width="60" height="60" as="geometry" />
        </mxCell>
        <mxCell id="761dnnyQ54j-Cl0NHfQN-2805" value="1" style="rounded=0;whiteSpace=wrap;html=1;" parent="9cPvnPn_NWPfVseriCJ5-1" vertex="1">
          <mxGeometry x="660" y="690" width="10" height="10" as="geometry" />
        </mxCell>
        <mxCell id="761dnnyQ54j-Cl0NHfQN-2806" value="9" style="rounded=0;whiteSpace=wrap;html=1;" parent="9cPvnPn_NWPfVseriCJ5-1" vertex="1">
          <mxGeometry x="660" y="600" width="90" height="90" as="geometry" />
        </mxCell>
        <mxCell id="761dnnyQ54j-Cl0NHfQN-2807" value="2" style="rounded=0;whiteSpace=wrap;html=1;" parent="9cPvnPn_NWPfVseriCJ5-1" vertex="1">
          <mxGeometry x="600" y="620" width="20" height="20" as="geometry" />
        </mxCell>
        <mxCell id="761dnnyQ54j-Cl0NHfQN-2808" value="4" style="rounded=0;whiteSpace=wrap;html=1;" parent="9cPvnPn_NWPfVseriCJ5-1" vertex="1">
          <mxGeometry x="620" y="600" width="40" height="40" as="geometry" />
        </mxCell>
        <mxCell id="761dnnyQ54j-Cl0NHfQN-2809" value="62" style="rounded=0;whiteSpace=wrap;html=1;" parent="9cPvnPn_NWPfVseriCJ5-1" vertex="1">
          <mxGeometry width="620" height="620" as="geometry" />
        </mxCell>
        <mxCell id="761dnnyQ54j-Cl0NHfQN-2810" value="60" style="rounded=0;whiteSpace=wrap;html=1;" parent="9cPvnPn_NWPfVseriCJ5-1" vertex="1">
          <mxGeometry x="620" width="600" height="600" as="geometry" />
        </mxCell>
        <mxCell id="9cPvnPn_NWPfVseriCJ5-2" value="" style="group;flipV=1;" vertex="1" connectable="0" parent="1">
          <mxGeometry x="75" y="1330" width="1220" height="980" as="geometry" />
        </mxCell>
        <mxCell id="761dnnyQ54j-Cl0NHfQN-4916" value="45" style="rounded=0;whiteSpace=wrap;html=1;" parent="9cPvnPn_NWPfVseriCJ5-2" vertex="1">
          <mxGeometry y="530" width="450" height="450" as="geometry" />
        </mxCell>
        <mxCell id="761dnnyQ54j-Cl0NHfQN-4917" value="24" style="rounded=0;whiteSpace=wrap;html=1;" parent="9cPvnPn_NWPfVseriCJ5-2" vertex="1">
          <mxGeometry x="450" y="740" width="240" height="240" as="geometry" />
        </mxCell>
        <mxCell id="761dnnyQ54j-Cl0NHfQN-4918" value="27" style="rounded=0;whiteSpace=wrap;html=1;" parent="9cPvnPn_NWPfVseriCJ5-2" vertex="1">
          <mxGeometry x="690" y="710" width="270" height="270" as="geometry" />
        </mxCell>
        <mxCell id="761dnnyQ54j-Cl0NHfQN-4919" value="21" style="rounded=0;whiteSpace=wrap;html=1;" parent="9cPvnPn_NWPfVseriCJ5-2" vertex="1">
          <mxGeometry x="450" y="530" width="210" height="210" as="geometry" />
        </mxCell>
        <mxCell id="761dnnyQ54j-Cl0NHfQN-4920" value="3" style="rounded=0;whiteSpace=wrap;html=1;" parent="9cPvnPn_NWPfVseriCJ5-2" vertex="1">
          <mxGeometry x="660" y="710" width="30" height="30" as="geometry" />
        </mxCell>
        <mxCell id="761dnnyQ54j-Cl0NHfQN-4921" value="26" style="rounded=0;whiteSpace=wrap;html=1;" parent="9cPvnPn_NWPfVseriCJ5-2" vertex="1">
          <mxGeometry x="960" y="720" width="260" height="260" as="geometry" />
        </mxCell>
        <mxCell id="761dnnyQ54j-Cl0NHfQN-4922" value="1" style="rounded=0;whiteSpace=wrap;html=1;" parent="9cPvnPn_NWPfVseriCJ5-2" vertex="1">
          <mxGeometry x="960" y="710" width="10" height="10" as="geometry" />
        </mxCell>
        <mxCell id="761dnnyQ54j-Cl0NHfQN-4923" value="25" style="rounded=0;whiteSpace=wrap;html=1;" parent="9cPvnPn_NWPfVseriCJ5-2" vertex="1">
          <mxGeometry x="970" y="470" width="250" height="250" as="geometry" />
        </mxCell>
        <mxCell id="761dnnyQ54j-Cl0NHfQN-4924" value="31" style="rounded=0;whiteSpace=wrap;html=1;" parent="9cPvnPn_NWPfVseriCJ5-2" vertex="1">
          <mxGeometry x="660" y="400" width="310" height="310" as="geometry" />
        </mxCell>
        <mxCell id="761dnnyQ54j-Cl0NHfQN-4925" value="7" style="rounded=0;whiteSpace=wrap;html=1;" parent="9cPvnPn_NWPfVseriCJ5-2" vertex="1">
          <mxGeometry x="970" y="400" width="70" height="70" as="geometry" />
        </mxCell>
        <mxCell id="761dnnyQ54j-Cl0NHfQN-4926" value="18" style="rounded=0;whiteSpace=wrap;html=1;" parent="9cPvnPn_NWPfVseriCJ5-2" vertex="1">
          <mxGeometry x="1040" y="290" width="180" height="180" as="geometry" />
        </mxCell>
        <mxCell id="761dnnyQ54j-Cl0NHfQN-4927" value="53" style="rounded=0;whiteSpace=wrap;html=1;" parent="9cPvnPn_NWPfVseriCJ5-2" vertex="1">
          <mxGeometry width="530" height="530" as="geometry" />
        </mxCell>
        <mxCell id="761dnnyQ54j-Cl0NHfQN-4928" value="13" style="rounded=0;whiteSpace=wrap;html=1;" parent="9cPvnPn_NWPfVseriCJ5-2" vertex="1">
          <mxGeometry x="530" y="400" width="130" height="130" as="geometry" />
        </mxCell>
        <mxCell id="761dnnyQ54j-Cl0NHfQN-4929" value="40" style="rounded=0;whiteSpace=wrap;html=1;" parent="9cPvnPn_NWPfVseriCJ5-2" vertex="1">
          <mxGeometry x="530" width="400" height="400" as="geometry" />
        </mxCell>
        <mxCell id="761dnnyQ54j-Cl0NHfQN-4930" value="11" style="rounded=0;whiteSpace=wrap;html=1;" parent="9cPvnPn_NWPfVseriCJ5-2" vertex="1">
          <mxGeometry x="930" y="290" width="110" height="110" as="geometry" />
        </mxCell>
        <mxCell id="761dnnyQ54j-Cl0NHfQN-4931" value="29" style="rounded=0;whiteSpace=wrap;html=1;" parent="9cPvnPn_NWPfVseriCJ5-2" vertex="1">
          <mxGeometry x="930" width="290" height="290" as="geometry" />
        </mxCell>
        <mxCell id="9cPvnPn_NWPfVseriCJ5-3" value="" style="group;flipV=1;" vertex="1" connectable="0" parent="1">
          <mxGeometry x="65" y="2460" width="1220" height="840" as="geometry" />
        </mxCell>
        <mxCell id="761dnnyQ54j-Cl0NHfQN-16347" value="36" style="rounded=0;whiteSpace=wrap;html=1;" parent="9cPvnPn_NWPfVseriCJ5-3" vertex="1">
          <mxGeometry y="480" width="360" height="360" as="geometry" />
        </mxCell>
        <mxCell id="761dnnyQ54j-Cl0NHfQN-16348" value="19" style="rounded=0;whiteSpace=wrap;html=1;" parent="9cPvnPn_NWPfVseriCJ5-3" vertex="1">
          <mxGeometry x="360" y="650" width="190" height="190" as="geometry" />
        </mxCell>
        <mxCell id="761dnnyQ54j-Cl0NHfQN-16349" value="16" style="rounded=0;whiteSpace=wrap;html=1;" parent="9cPvnPn_NWPfVseriCJ5-3" vertex="1">
          <mxGeometry x="550" y="680" width="160" height="160" as="geometry" />
        </mxCell>
        <mxCell id="761dnnyQ54j-Cl0NHfQN-16350" value="27" style="rounded=0;whiteSpace=wrap;html=1;" parent="9cPvnPn_NWPfVseriCJ5-3" vertex="1">
          <mxGeometry x="710" y="570" width="270" height="270" as="geometry" />
        </mxCell>
        <mxCell id="761dnnyQ54j-Cl0NHfQN-16351" value="5" style="rounded=0;whiteSpace=wrap;html=1;" parent="9cPvnPn_NWPfVseriCJ5-3" vertex="1">
          <mxGeometry x="550" y="630" width="50" height="50" as="geometry" />
        </mxCell>
        <mxCell id="761dnnyQ54j-Cl0NHfQN-16352" value="11" style="rounded=0;whiteSpace=wrap;html=1;" parent="9cPvnPn_NWPfVseriCJ5-3" vertex="1">
          <mxGeometry x="600" y="570" width="110" height="110" as="geometry" />
        </mxCell>
        <mxCell id="761dnnyQ54j-Cl0NHfQN-16353" value="17" style="rounded=0;whiteSpace=wrap;html=1;" parent="9cPvnPn_NWPfVseriCJ5-3" vertex="1">
          <mxGeometry x="360" y="480" width="170" height="170" as="geometry" />
        </mxCell>
        <mxCell id="761dnnyQ54j-Cl0NHfQN-16354" value="2" style="rounded=0;whiteSpace=wrap;html=1;" parent="9cPvnPn_NWPfVseriCJ5-3" vertex="1">
          <mxGeometry x="530" y="630" width="20" height="20" as="geometry" />
        </mxCell>
        <mxCell id="761dnnyQ54j-Cl0NHfQN-16355" value="7" style="rounded=0;whiteSpace=wrap;html=1;" parent="9cPvnPn_NWPfVseriCJ5-3" vertex="1">
          <mxGeometry x="530" y="560" width="70" height="70" as="geometry" />
        </mxCell>
        <mxCell id="761dnnyQ54j-Cl0NHfQN-16356" value="24" style="rounded=0;whiteSpace=wrap;html=1;" parent="9cPvnPn_NWPfVseriCJ5-3" vertex="1">
          <mxGeometry x="980" y="600" width="240" height="240" as="geometry" />
        </mxCell>
        <mxCell id="761dnnyQ54j-Cl0NHfQN-16357" value="3" style="rounded=0;whiteSpace=wrap;html=1;" parent="9cPvnPn_NWPfVseriCJ5-3" vertex="1">
          <mxGeometry x="980" y="570" width="30" height="30" as="geometry" />
        </mxCell>
        <mxCell id="761dnnyQ54j-Cl0NHfQN-16358" value="21" style="rounded=0;whiteSpace=wrap;html=1;" parent="9cPvnPn_NWPfVseriCJ5-3" vertex="1">
          <mxGeometry x="1010" y="390" width="210" height="210" as="geometry" />
        </mxCell>
        <mxCell id="761dnnyQ54j-Cl0NHfQN-16359" value="1" style="rounded=0;whiteSpace=wrap;html=1;" parent="9cPvnPn_NWPfVseriCJ5-3" vertex="1">
          <mxGeometry x="600" y="560" width="10" height="10" as="geometry" />
        </mxCell>
        <mxCell id="761dnnyQ54j-Cl0NHfQN-16360" value="22" style="rounded=0;whiteSpace=wrap;html=1;" parent="9cPvnPn_NWPfVseriCJ5-3" vertex="1">
          <mxGeometry x="610" y="350" width="220" height="220" as="geometry" />
        </mxCell>
        <mxCell id="761dnnyQ54j-Cl0NHfQN-16361" value="8" style="rounded=0;whiteSpace=wrap;html=1;" parent="9cPvnPn_NWPfVseriCJ5-3" vertex="1">
          <mxGeometry x="530" y="480" width="80" height="80" as="geometry" />
        </mxCell>
        <mxCell id="761dnnyQ54j-Cl0NHfQN-16362" value="18" style="rounded=0;whiteSpace=wrap;html=1;" parent="9cPvnPn_NWPfVseriCJ5-3" vertex="1">
          <mxGeometry x="830" y="390" width="180" height="180" as="geometry" />
        </mxCell>
        <mxCell id="761dnnyQ54j-Cl0NHfQN-16363" value="39" style="rounded=0;whiteSpace=wrap;html=1;" parent="9cPvnPn_NWPfVseriCJ5-3" vertex="1">
          <mxGeometry x="830" width="390" height="390" as="geometry" />
        </mxCell>
        <mxCell id="761dnnyQ54j-Cl0NHfQN-16364" value="48" style="rounded=0;whiteSpace=wrap;html=1;" parent="9cPvnPn_NWPfVseriCJ5-3" vertex="1">
          <mxGeometry width="480" height="480" as="geometry" />
        </mxCell>
        <mxCell id="761dnnyQ54j-Cl0NHfQN-16365" value="13" style="rounded=0;whiteSpace=wrap;html=1;" parent="9cPvnPn_NWPfVseriCJ5-3" vertex="1">
          <mxGeometry x="480" y="350" width="130" height="130" as="geometry" />
        </mxCell>
        <mxCell id="761dnnyQ54j-Cl0NHfQN-16366" value="35" style="rounded=0;whiteSpace=wrap;html=1;" parent="9cPvnPn_NWPfVseriCJ5-3" vertex="1">
          <mxGeometry x="480" width="350" height="350" as="geometry" />
        </mxCell>
      </root>
    </mxGraphModel>
  </diagram>
</mxfile>
